# xmcd
#
# Track frame offsets:
#	150
#	9118
#	27235
#	43975
#	61631
#	76578
#	99965
#	118807
#	135548
#	152562
#
# Disc length: 2261 seconds
#
# Revision: 0
# Processed by: cddbd v1.5.2PL0 Copyright (c) Steve Scherf et al.
# Submitted via: audiograbber 1.83.01
#
DISCID=6808d30a
DTITLE=mudy on the sakuban - pavilion
DYEAR=2010
DGENRE=Instrumental Rock
TTITLE0=moody pavilion
TTITLE1=YOUTH
TTITLE2=redaro
TTITLE3=Fashion [pavilion ver.]
TTITLE4=IDEA
TTITLE5=yuuhi no
TTITLE6=deltal
TTITLE7=Sarliban
TTITLE8=yoru ga itte kuru
TTITLE9=TOWN
EXTD=
EXTT0=
EXTT1=
EXTT2=
EXTT3=
EXTT4=
EXTT5=
EXTT6=
EXTT7=
EXTT8=
EXTT9=
PLAYORDER=
